<mxfile host="app.diagrams.net" agent="Mozilla/5.0 (Windows NT 10.0; Win64; x64) AppleWebKit/537.36 (KHTML, like Gecko) Chrome/132.0.0.0 Safari/537.36" version="26.0.14">
  <diagram name="Page-1" id="3e8102d1-ef87-2e61-34e1-82d9a586fe2e">
    <mxGraphModel dx="1434" dy="1596" grid="1" gridSize="10" guides="1" tooltips="1" connect="1" arrows="1" fold="1" page="1" pageScale="1" pageWidth="1100" pageHeight="850" background="none" math="1" shadow="0">
      <root>
        <mxCell id="0" />
        <mxCell id="1" parent="0" />
        <mxCell id="ZP9dMkIUFEcNXo-w45km-23" value="" style="endArrow=none;html=1;rounded=0;entryX=1;entryY=1;entryDx=0;entryDy=0;opacity=50;strokeColor=#B20000;align=center;verticalAlign=middle;fontFamily=Helvetica;fontSize=11;fontColor=default;labelBackgroundColor=default;fillColor=#e51400;exitX=0;exitY=0;exitDx=0;exitDy=0;" edge="1" parent="1" source="ZP9dMkIUFEcNXo-w45km-2" target="ZP9dMkIUFEcNXo-w45km-2">
          <mxGeometry width="50" height="50" relative="1" as="geometry">
            <mxPoint x="531" y="1134" as="sourcePoint" />
            <mxPoint x="794.1986379959956" y="870.4013620040045" as="targetPoint" />
          </mxGeometry>
        </mxCell>
        <mxCell id="ZP9dMkIUFEcNXo-w45km-21" value="" style="endArrow=none;html=1;rounded=0;entryX=1;entryY=0.5;entryDx=0;entryDy=0;opacity=50;strokeColor=#B20000;align=center;verticalAlign=middle;fontFamily=Helvetica;fontSize=11;fontColor=default;labelBackgroundColor=default;fillColor=#e51400;exitX=0;exitY=0.5;exitDx=0;exitDy=0;" edge="1" parent="1" source="ZP9dMkIUFEcNXo-w45km-2" target="ZP9dMkIUFEcNXo-w45km-2">
          <mxGeometry width="50" height="50" relative="1" as="geometry">
            <mxPoint x="511" y="1114" as="sourcePoint" />
            <mxPoint x="774.1986379959956" y="850.4013620040045" as="targetPoint" />
          </mxGeometry>
        </mxCell>
        <mxCell id="ZP9dMkIUFEcNXo-w45km-19" value="" style="endArrow=none;html=1;rounded=0;entryX=1;entryY=0;entryDx=0;entryDy=0;opacity=50;strokeColor=#B20000;align=center;verticalAlign=middle;fontFamily=Helvetica;fontSize=11;fontColor=default;labelBackgroundColor=default;fillColor=#e51400;exitX=0;exitY=1;exitDx=0;exitDy=0;" edge="1" parent="1" source="ZP9dMkIUFEcNXo-w45km-2">
          <mxGeometry width="50" height="50" relative="1" as="geometry">
            <mxPoint x="505" y="1104.6" as="sourcePoint" />
            <mxPoint x="764.1986379959956" y="840.4013620040045" as="targetPoint" />
          </mxGeometry>
        </mxCell>
        <mxCell id="ZP9dMkIUFEcNXo-w45km-22" value="" style="endArrow=none;html=1;rounded=0;entryX=0.5;entryY=0;entryDx=0;entryDy=0;opacity=50;strokeColor=#B20000;align=center;verticalAlign=middle;fontFamily=Helvetica;fontSize=11;fontColor=default;labelBackgroundColor=default;fillColor=#e51400;exitX=0.5;exitY=1;exitDx=0;exitDy=0;" edge="1" parent="1" source="ZP9dMkIUFEcNXo-w45km-2" target="ZP9dMkIUFEcNXo-w45km-2">
          <mxGeometry width="50" height="50" relative="1" as="geometry">
            <mxPoint x="521" y="1124" as="sourcePoint" />
            <mxPoint x="784.1986379959956" y="860.4013620040045" as="targetPoint" />
          </mxGeometry>
        </mxCell>
        <mxCell id="ZP9dMkIUFEcNXo-w45km-2" value="" style="ellipse;whiteSpace=wrap;html=1;aspect=fixed;fillColor=#fff2cc;gradientColor=#ffd966;strokeColor=#d6b656;opacity=60;fontSize=24;" vertex="1" parent="1">
          <mxGeometry x="446.25" y="786.25" width="372.5" height="372.5" as="geometry" />
        </mxCell>
        <mxCell id="Qo9rTc8Vc66NQw80wVvB-3" value="" style="ellipse;whiteSpace=wrap;html=1;aspect=fixed;fillColor=#f8cecc;strokeColor=#b85450;opacity=20;" parent="1" vertex="1">
          <mxGeometry x="145" y="-40" width="800" height="800" as="geometry" />
        </mxCell>
        <mxCell id="T1doIEQyFVwWhVVJHX3b-1" value="" style="ellipse;whiteSpace=wrap;html=1;aspect=fixed;fillColor=#1ba1e2;fontColor=#ffffff;strokeColor=#006EAF;opacity=20;" parent="1" vertex="1">
          <mxGeometry x="177.5" y="-7.5" width="735" height="735" as="geometry" />
        </mxCell>
        <mxCell id="kgX0nDSww72TRnQ_sGR9-2" value="" style="ellipse;whiteSpace=wrap;html=1;aspect=fixed;fillColor=#ffe6cc;strokeColor=#d79b00;opacity=60;" parent="1" vertex="1">
          <mxGeometry x="240" y="55" width="610" height="610" as="geometry" />
        </mxCell>
        <mxCell id="70666756c84bb93c-1" value="" style="ellipse;whiteSpace=wrap;html=1;rounded=0;shadow=0;comic=0;strokeWidth=1;fontFamily=Verdana;fontSize=14;strokeColor=none;fillColor=#0069D1;opacity=50;" parent="1" vertex="1">
          <mxGeometry x="295" y="110" width="500" height="500" as="geometry" />
        </mxCell>
        <mxCell id="kgX0nDSww72TRnQ_sGR9-15" value="" style="endArrow=none;html=1;rounded=0;entryX=0.5;entryY=0;entryDx=0;entryDy=0;opacity=50;fillColor=#e51400;strokeColor=#B20000;exitX=0.5;exitY=1;exitDx=0;exitDy=0;" parent="1" source="T1doIEQyFVwWhVVJHX3b-1" edge="1">
          <mxGeometry width="50" height="50" relative="1" as="geometry">
            <mxPoint x="545" y="665" as="sourcePoint" />
            <mxPoint x="545" y="305" as="targetPoint" />
          </mxGeometry>
        </mxCell>
        <mxCell id="kgX0nDSww72TRnQ_sGR9-16" value="" style="ellipse;whiteSpace=wrap;html=1;aspect=fixed;fillColor=#fff2cc;gradientColor=#ffd966;strokeColor=#d6b656;opacity=60;" parent="1" vertex="1">
          <mxGeometry x="380" y="195" width="330" height="330" as="geometry" />
        </mxCell>
        <mxCell id="kgX0nDSww72TRnQ_sGR9-6" value="" style="endArrow=none;html=1;rounded=0;entryX=1;entryY=0;entryDx=0;entryDy=0;opacity=20;fillColor=#e51400;strokeColor=#B20000;exitX=0;exitY=1;exitDx=0;exitDy=0;" parent="1" source="T1doIEQyFVwWhVVJHX3b-1" target="T1doIEQyFVwWhVVJHX3b-1" edge="1">
          <mxGeometry width="50" height="50" relative="1" as="geometry">
            <mxPoint x="545" y="360" as="sourcePoint" />
            <mxPoint x="590" y="310" as="targetPoint" />
          </mxGeometry>
        </mxCell>
        <mxCell id="kgX0nDSww72TRnQ_sGR9-12" value="" style="endArrow=none;html=1;rounded=0;entryX=0.5;entryY=0;entryDx=0;entryDy=0;opacity=20;fillColor=#e51400;strokeColor=#B20000;exitX=0.5;exitY=1;exitDx=0;exitDy=0;" parent="1" target="T1doIEQyFVwWhVVJHX3b-1" edge="1">
          <mxGeometry width="50" height="50" relative="1" as="geometry">
            <mxPoint x="545" y="415" as="sourcePoint" />
            <mxPoint x="809" y="204" as="targetPoint" />
          </mxGeometry>
        </mxCell>
        <mxCell id="kgX0nDSww72TRnQ_sGR9-13" value="" style="endArrow=none;html=1;rounded=0;entryX=0;entryY=0;entryDx=0;entryDy=0;opacity=20;fillColor=#e51400;strokeColor=#B20000;exitX=1;exitY=1;exitDx=0;exitDy=0;" parent="1" source="T1doIEQyFVwWhVVJHX3b-1" target="T1doIEQyFVwWhVVJHX3b-1" edge="1">
          <mxGeometry width="50" height="50" relative="1" as="geometry">
            <mxPoint x="540" y="360" as="sourcePoint" />
            <mxPoint x="819" y="214" as="targetPoint" />
          </mxGeometry>
        </mxCell>
        <mxCell id="kgX0nDSww72TRnQ_sGR9-7" value="" style="endArrow=none;html=1;rounded=0;entryX=1;entryY=0.5;entryDx=0;entryDy=0;opacity=20;fillColor=#e51400;strokeColor=#B20000;exitX=0;exitY=0.5;exitDx=0;exitDy=0;" parent="1" source="T1doIEQyFVwWhVVJHX3b-1" target="T1doIEQyFVwWhVVJHX3b-1" edge="1">
          <mxGeometry width="50" height="50" relative="1" as="geometry">
            <mxPoint x="545" y="360" as="sourcePoint" />
            <mxPoint x="759" y="154" as="targetPoint" />
          </mxGeometry>
        </mxCell>
        <mxCell id="kgX0nDSww72TRnQ_sGR9-17" value="AI&lt;div&gt;大模型&lt;/div&gt;" style="ellipse;whiteSpace=wrap;html=1;aspect=fixed;fontSize=20;fillColor=#fad7ac;strokeColor=#b46504;opacity=20;" parent="1" vertex="1">
          <mxGeometry x="505" y="320" width="80" height="80" as="geometry" />
        </mxCell>
        <mxCell id="kgX0nDSww72TRnQ_sGR9-22" value="&lt;span style=&quot;font-family: 宋体; text-align: justify;&quot;&gt;ROS技术&lt;/span&gt;" style="rounded=0;whiteSpace=wrap;html=1;fontSize=20;strokeColor=none;rotation=-60;opacity=0;" parent="1" vertex="1">
          <mxGeometry x="549" y="259" width="80" height="20" as="geometry" />
        </mxCell>
        <mxCell id="kgX0nDSww72TRnQ_sGR9-24" value="&lt;span style=&quot;font-family: 宋体; text-align: justify;&quot;&gt;机器人&lt;/span&gt;&lt;div&gt;&lt;span style=&quot;font-family: 宋体; text-align: justify;&quot;&gt;数学基础&lt;/span&gt;&lt;/div&gt;" style="rounded=0;whiteSpace=wrap;html=1;fontSize=20;strokeColor=none;opacity=0;" parent="1" vertex="1">
          <mxGeometry x="602" y="306" width="90" height="40" as="geometry" />
        </mxCell>
        <mxCell id="kgX0nDSww72TRnQ_sGR9-25" value="&lt;span style=&quot;font-family: 宋体; text-align: justify;&quot;&gt;运动学&lt;/span&gt;&lt;div&gt;&lt;span style=&quot;font-family: 宋体; text-align: justify;&quot;&gt;动力学&lt;/span&gt;&lt;/div&gt;" style="rounded=0;whiteSpace=wrap;html=1;fontSize=20;strokeColor=none;opacity=0;" parent="1" vertex="1">
          <mxGeometry x="603" y="379" width="90" height="40" as="geometry" />
        </mxCell>
        <mxCell id="kgX0nDSww72TRnQ_sGR9-26" value="&lt;span style=&quot;font-family: 宋体; text-align: justify;&quot;&gt;传感器&lt;/span&gt;" style="rounded=0;whiteSpace=wrap;html=1;fontSize=20;strokeColor=none;rotation=60;opacity=0;" parent="1" vertex="1">
          <mxGeometry x="547.5" y="450" width="85" height="20" as="geometry" />
        </mxCell>
        <mxCell id="kgX0nDSww72TRnQ_sGR9-27" value="&lt;span style=&quot;font-family: 宋体; text-align: justify;&quot;&gt;图像处理&lt;/span&gt;" style="rounded=0;whiteSpace=wrap;html=1;fontSize=20;strokeColor=none;rotation=-60;opacity=0;" parent="1" vertex="1">
          <mxGeometry x="460" y="450" width="85" height="20" as="geometry" />
        </mxCell>
        <mxCell id="kgX0nDSww72TRnQ_sGR9-28" value="&lt;span style=&quot;font-family: 宋体; text-align: justify;&quot;&gt;路径规划&lt;/span&gt;" style="rounded=0;whiteSpace=wrap;html=1;fontSize=20;strokeColor=none;opacity=0;" parent="1" vertex="1">
          <mxGeometry x="399" y="320" width="90" height="20" as="geometry" />
        </mxCell>
        <mxCell id="kgX0nDSww72TRnQ_sGR9-30" value="&lt;span style=&quot;font-family: 宋体; text-align: justify;&quot;&gt;控制理论&lt;/span&gt;" style="rounded=0;whiteSpace=wrap;html=1;fontSize=20;strokeColor=none;rotation=60;opacity=0;" parent="1" vertex="1">
          <mxGeometry x="461" y="260" width="85" height="20" as="geometry" />
        </mxCell>
        <mxCell id="kgX0nDSww72TRnQ_sGR9-31" value="&lt;span style=&quot;font-family: 宋体; text-align: justify;&quot;&gt;SLAM&lt;/span&gt;" style="rounded=0;whiteSpace=wrap;html=1;fontSize=20;strokeColor=none;opacity=0;" parent="1" vertex="1">
          <mxGeometry x="400" y="383" width="85" height="20" as="geometry" />
        </mxCell>
        <mxCell id="kgX0nDSww72TRnQ_sGR9-44" value="课前预习" style="text;html=1;align=center;verticalAlign=middle;whiteSpace=wrap;rounded=0;fontSize=16;rotation=30;" parent="1" vertex="1">
          <mxGeometry x="590" y="155" width="80" height="40" as="geometry" />
        </mxCell>
        <mxCell id="kgX0nDSww72TRnQ_sGR9-45" value="使用ChatGPT、DeepSeek、&lt;div&gt;豆包等模型&lt;/div&gt;" style="text;html=1;align=center;verticalAlign=middle;whiteSpace=wrap;rounded=0;rotation=60;fontSize=16;" parent="1" vertex="1">
          <mxGeometry x="669" y="259" width="140" height="60" as="geometry" />
        </mxCell>
        <mxCell id="kgX0nDSww72TRnQ_sGR9-46" value="根据“3W”法" style="text;html=1;align=center;verticalAlign=middle;whiteSpace=wrap;rounded=0;rotation=-60;fontSize=16;" parent="1" vertex="1">
          <mxGeometry x="690" y="428" width="90" height="22" as="geometry" />
        </mxCell>
        <mxCell id="kgX0nDSww72TRnQ_sGR9-48" value="翻转课堂答辩" style="text;html=1;align=center;verticalAlign=middle;whiteSpace=wrap;rounded=0;fontSize=16;rotation=-35;" parent="1" vertex="1">
          <mxGeometry x="428" y="152" width="80" height="42" as="geometry" />
        </mxCell>
        <mxCell id="kgX0nDSww72TRnQ_sGR9-51" value="查找资料" style="text;html=1;align=center;verticalAlign=middle;whiteSpace=wrap;rounded=0;fontSize=16;rotation=-25;" parent="1" vertex="1">
          <mxGeometry x="590" y="525" width="70" height="30" as="geometry" />
        </mxCell>
        <mxCell id="kgX0nDSww72TRnQ_sGR9-52" value="了解原理" style="text;html=1;align=center;verticalAlign=middle;whiteSpace=wrap;rounded=0;fontSize=16;" parent="1" vertex="1">
          <mxGeometry x="425" y="540" width="80" height="30" as="geometry" />
        </mxCell>
        <mxCell id="kgX0nDSww72TRnQ_sGR9-54" value="理论验证" style="text;html=1;align=center;verticalAlign=middle;whiteSpace=wrap;rounded=0;fontSize=16;rotation=60;" parent="1" vertex="1">
          <mxGeometry x="310" y="420" width="80" height="30" as="geometry" />
        </mxCell>
        <mxCell id="kgX0nDSww72TRnQ_sGR9-55" value="制作PPT" style="text;html=1;align=center;verticalAlign=middle;whiteSpace=wrap;rounded=0;fontSize=16;rotation=-65;" parent="1" vertex="1">
          <mxGeometry x="320" y="260" width="80" height="30" as="geometry" />
        </mxCell>
        <mxCell id="T1doIEQyFVwWhVVJHX3b-3" value="在Ubuntu系统下&lt;div&gt;完成ROS的安装&lt;/div&gt;" style="text;html=1;align=center;verticalAlign=middle;whiteSpace=wrap;rounded=0;fontSize=16;rotation=27;" parent="1" vertex="1">
          <mxGeometry x="602" y="40" width="185" height="45" as="geometry" />
        </mxCell>
        <mxCell id="T1doIEQyFVwWhVVJHX3b-4" value="复习高数、线代、&lt;div&gt;概率等基础数学知识。&lt;/div&gt;" style="text;html=1;align=center;verticalAlign=middle;whiteSpace=wrap;rounded=0;fontSize=16;rotation=75;" parent="1" vertex="1">
          <mxGeometry x="768" y="221" width="170" height="30" as="geometry" />
        </mxCell>
        <mxCell id="T1doIEQyFVwWhVVJHX3b-5" value="安装MoveIt，&lt;div&gt;验证运动学和动力学模型&lt;/div&gt;" style="text;html=1;align=center;verticalAlign=middle;whiteSpace=wrap;rounded=0;fontSize=16;rotation=-65;" parent="1" vertex="1">
          <mxGeometry x="758" y="463" width="180" height="45" as="geometry" />
        </mxCell>
        <mxCell id="T1doIEQyFVwWhVVJHX3b-6" value="绪论、机器人应用" style="text;html=1;align=center;verticalAlign=middle;whiteSpace=wrap;rounded=0;fontSize=16;rotation=25;" parent="1" vertex="1">
          <mxGeometry x="590" y="95" width="130" height="30" as="geometry" />
        </mxCell>
        <mxCell id="T1doIEQyFVwWhVVJHX3b-7" value="齐次坐标、矩阵理论" style="text;html=1;align=center;verticalAlign=middle;whiteSpace=wrap;rounded=0;fontSize=16;rotation=60;" parent="1" vertex="1">
          <mxGeometry x="720" y="237.5" width="150" height="30" as="geometry" />
        </mxCell>
        <mxCell id="T1doIEQyFVwWhVVJHX3b-8" value="DH-Model、动力学介绍" style="text;html=1;align=center;verticalAlign=middle;whiteSpace=wrap;rounded=0;fontSize=16;rotation=-60;" parent="1" vertex="1">
          <mxGeometry x="692" y="456" width="200" height="30" as="geometry" />
        </mxCell>
        <mxCell id="T1doIEQyFVwWhVVJHX3b-9" value="内外部传感器" style="text;html=1;align=center;verticalAlign=middle;whiteSpace=wrap;rounded=0;fontSize=16;rotation=-25;" parent="1" vertex="1">
          <mxGeometry x="610" y="590" width="110" height="45" as="geometry" />
        </mxCell>
        <mxCell id="T1doIEQyFVwWhVVJHX3b-10" value="选用任意一款单片机&lt;div&gt;采集数据&lt;/div&gt;" style="text;html=1;align=center;verticalAlign=middle;whiteSpace=wrap;rounded=0;fontSize=16;rotation=-25;" parent="1" vertex="1">
          <mxGeometry x="603" y="640" width="170" height="45" as="geometry" />
        </mxCell>
        <mxCell id="T1doIEQyFVwWhVVJHX3b-11" value="基本预处理算法" style="text;html=1;align=center;verticalAlign=middle;whiteSpace=wrap;rounded=0;fontSize=16;rotation=25;" parent="1" vertex="1">
          <mxGeometry x="380" y="590" width="120" height="45" as="geometry" />
        </mxCell>
        <mxCell id="T1doIEQyFVwWhVVJHX3b-12" value="能够配置&lt;div&gt;Opencv环境&lt;/div&gt;" style="text;html=1;align=center;verticalAlign=middle;whiteSpace=wrap;rounded=0;fontSize=16;rotation=30;" parent="1" vertex="1">
          <mxGeometry x="300" y="640" width="205" height="45" as="geometry" />
        </mxCell>
        <mxCell id="T1doIEQyFVwWhVVJHX3b-13" value="激光和视觉SLAM" style="text;html=1;align=center;verticalAlign=middle;whiteSpace=wrap;rounded=0;fontSize=16;rotation=70;" parent="1" vertex="1">
          <mxGeometry x="218" y="450" width="155" height="32" as="geometry" />
        </mxCell>
        <mxCell id="T1doIEQyFVwWhVVJHX3b-14" value="了解SLAM前沿技术，选择任意一个小点研究" style="text;html=1;align=center;verticalAlign=middle;whiteSpace=wrap;rounded=0;fontSize=16;rotation=62;" parent="1" vertex="1">
          <mxGeometry x="160" y="470" width="170" height="45" as="geometry" />
        </mxCell>
        <mxCell id="T1doIEQyFVwWhVVJHX3b-15" value="Dijstra、人工势场" style="text;html=1;align=center;verticalAlign=middle;whiteSpace=wrap;rounded=0;fontSize=16;rotation=-70;" parent="1" vertex="1">
          <mxGeometry x="219" y="245.5" width="160" height="16" as="geometry" />
        </mxCell>
        <mxCell id="T1doIEQyFVwWhVVJHX3b-16" value="能够跑通ROS&lt;div&gt;中路径仿真&lt;/div&gt;" style="text;html=1;align=center;verticalAlign=middle;whiteSpace=wrap;rounded=0;fontSize=16;rotation=-67;" parent="1" vertex="1">
          <mxGeometry x="185" y="206" width="110" height="45" as="geometry" />
        </mxCell>
        <mxCell id="T1doIEQyFVwWhVVJHX3b-17" value="基本控制理论、&lt;div&gt;PID控制基础&lt;/div&gt;" style="text;html=1;align=center;verticalAlign=middle;whiteSpace=wrap;rounded=0;fontSize=16;rotation=333;" parent="1" vertex="1">
          <mxGeometry x="361" y="83" width="150" height="45" as="geometry" />
        </mxCell>
        <mxCell id="T1doIEQyFVwWhVVJHX3b-18" value="能够配置PID参数" style="text;html=1;align=center;verticalAlign=middle;whiteSpace=wrap;rounded=0;fontSize=16;rotation=-25;" parent="1" vertex="1">
          <mxGeometry x="346" y="30" width="125" height="45" as="geometry" />
        </mxCell>
        <mxCell id="Qo9rTc8Vc66NQw80wVvB-4" value="教学反思" style="text;html=1;align=center;verticalAlign=middle;whiteSpace=wrap;rounded=0;" parent="1" vertex="1">
          <mxGeometry x="515" y="-37.5" width="60" height="30" as="geometry" />
        </mxCell>
        <mxCell id="Qo9rTc8Vc66NQw80wVvB-5" value="作业批改" style="text;html=1;align=center;verticalAlign=middle;whiteSpace=wrap;rounded=0;rotation=45;" parent="1" vertex="1">
          <mxGeometry x="787" y="80" width="60" height="30" as="geometry" />
        </mxCell>
        <mxCell id="Qo9rTc8Vc66NQw80wVvB-6" value="前沿学习" style="text;html=1;align=center;verticalAlign=middle;whiteSpace=wrap;rounded=0;rotation=90;" parent="1" vertex="1">
          <mxGeometry x="900" y="346" width="60" height="30" as="geometry" />
        </mxCell>
        <mxCell id="Qo9rTc8Vc66NQw80wVvB-9" value="优化备课" style="text;html=1;align=center;verticalAlign=middle;whiteSpace=wrap;rounded=0;rotation=-45;direction=north;" parent="1" vertex="1">
          <mxGeometry x="789.74" y="597.65" width="50.25" height="55" as="geometry" />
        </mxCell>
        <mxCell id="Qo9rTc8Vc66NQw80wVvB-10" value="个性化教学" style="text;html=1;align=center;verticalAlign=middle;whiteSpace=wrap;rounded=0;rotation=0;" parent="1" vertex="1">
          <mxGeometry x="507.5" y="730" width="75" height="30" as="geometry" />
        </mxCell>
        <mxCell id="Qo9rTc8Vc66NQw80wVvB-11" value="科研辅助" style="text;html=1;align=center;verticalAlign=middle;whiteSpace=wrap;rounded=0;rotation=45;" parent="1" vertex="1">
          <mxGeometry x="235" y="620" width="75" height="30" as="geometry" />
        </mxCell>
        <mxCell id="Qo9rTc8Vc66NQw80wVvB-12" value="职业发展" style="text;html=1;align=center;verticalAlign=middle;whiteSpace=wrap;rounded=0;rotation=270;" parent="1" vertex="1">
          <mxGeometry x="130" y="345" width="75" height="30" as="geometry" />
        </mxCell>
        <mxCell id="Qo9rTc8Vc66NQw80wVvB-13" value="教学创新" style="text;html=1;align=center;verticalAlign=middle;whiteSpace=wrap;rounded=0;rotation=315;" parent="1" vertex="1">
          <mxGeometry x="240" y="80" width="75" height="30" as="geometry" />
        </mxCell>
        <mxCell id="Qo9rTc8Vc66NQw80wVvB-16" value="课程模块化设计" style="whiteSpace=wrap;html=1;rounded=1;arcSize=50;align=center;verticalAlign=middle;strokeWidth=1;autosize=1;spacing=4;treeFolding=1;treeMoving=1;newEdgeStyle={&quot;edgeStyle&quot;:&quot;entityRelationEdgeStyle&quot;,&quot;startArrow&quot;:&quot;none&quot;,&quot;endArrow&quot;:&quot;none&quot;,&quot;segment&quot;:10,&quot;curved&quot;:1,&quot;sourcePerimeterSpacing&quot;:0,&quot;targetPerimeterSpacing&quot;:0};opacity=60;strokeColor=#d6b656;fontFamily=Helvetica;fontSize=16;fontColor=default;fillColor=#fff2cc;gradientColor=#ffd966;" parent="1" vertex="1">
          <mxGeometry x="795" y="-140" width="160" height="40" as="geometry" />
        </mxCell>
        <mxCell id="Qo9rTc8Vc66NQw80wVvB-17" value="" style="edgeStyle=entityRelationEdgeStyle;startArrow=none;endArrow=none;segment=10;curved=0;sourcePerimeterSpacing=0;targetPerimeterSpacing=0;rounded=1;strokeColor=#d6b656;exitX=0.75;exitY=0;exitDx=0;exitDy=0;opacity=60;align=center;verticalAlign=middle;fontFamily=Helvetica;fontSize=12;fontColor=default;fillColor=#fff2cc;gradientColor=#ffd966;" parent="1" source="kgX0nDSww72TRnQ_sGR9-22" target="Qo9rTc8Vc66NQw80wVvB-16" edge="1">
          <mxGeometry relative="1" as="geometry">
            <mxPoint x="810" y="-50" as="sourcePoint" />
            <Array as="points">
              <mxPoint x="930" y="-50" />
              <mxPoint x="830" y="-110" />
              <mxPoint x="930" y="-30" />
              <mxPoint x="920" y="-30" />
              <mxPoint x="920" y="-30" />
              <mxPoint x="840" y="-110" />
              <mxPoint x="830" y="-120" />
              <mxPoint x="800" y="-120" />
              <mxPoint x="900" y="-30" />
              <mxPoint x="810" y="-50" />
              <mxPoint x="750" y="-90" />
              <mxPoint x="950" y="-50" />
              <mxPoint x="860" y="-110" />
            </Array>
          </mxGeometry>
        </mxCell>
        <mxCell id="Qo9rTc8Vc66NQw80wVvB-21" value="学生：课前预习" style="whiteSpace=wrap;html=1;rounded=1;arcSize=50;align=center;verticalAlign=middle;strokeWidth=1;autosize=1;spacing=4;treeFolding=1;treeMoving=1;newEdgeStyle={&quot;edgeStyle&quot;:&quot;entityRelationEdgeStyle&quot;,&quot;startArrow&quot;:&quot;none&quot;,&quot;endArrow&quot;:&quot;none&quot;,&quot;segment&quot;:10,&quot;curved&quot;:1,&quot;sourcePerimeterSpacing&quot;:0,&quot;targetPerimeterSpacing&quot;:0};shadow=0;comic=0;opacity=50;fontFamily=Verdana;fontSize=16;fontColor=default;fillColor=#0069D1;" parent="1" vertex="1">
          <mxGeometry x="810" y="-85" width="160" height="40" as="geometry" />
        </mxCell>
        <mxCell id="Qo9rTc8Vc66NQw80wVvB-22" value="" style="edgeStyle=entityRelationEdgeStyle;startArrow=none;endArrow=none;segment=10;sourcePerimeterSpacing=0;targetPerimeterSpacing=0;rounded=1;exitX=1;exitY=0;exitDx=0;exitDy=0;shadow=0;comic=0;opacity=50;strokeWidth=1;align=center;verticalAlign=middle;fontFamily=Verdana;fontSize=16;fontColor=default;fillColor=#0069D1;strokeColor=default;spacing=4;arcSize=50;autosize=1;" parent="1" source="kgX0nDSww72TRnQ_sGR9-44" target="Qo9rTc8Vc66NQw80wVvB-21" edge="1">
          <mxGeometry relative="1" as="geometry">
            <mxPoint x="835" y="-26" as="sourcePoint" />
          </mxGeometry>
        </mxCell>
        <mxCell id="Qo9rTc8Vc66NQw80wVvB-23" value="教师：课堂授课" style="whiteSpace=wrap;html=1;rounded=1;arcSize=50;align=center;verticalAlign=middle;strokeWidth=1;autosize=1;spacing=4;treeFolding=1;treeMoving=1;newEdgeStyle={&quot;edgeStyle&quot;:&quot;entityRelationEdgeStyle&quot;,&quot;startArrow&quot;:&quot;none&quot;,&quot;endArrow&quot;:&quot;none&quot;,&quot;segment&quot;:10,&quot;curved&quot;:1,&quot;sourcePerimeterSpacing&quot;:0,&quot;targetPerimeterSpacing&quot;:0};opacity=60;strokeColor=#d79b00;fontFamily=Helvetica;fontSize=16;fontColor=default;fillColor=#ffe6cc;" parent="1" vertex="1">
          <mxGeometry x="850" y="-33" width="160" height="40" as="geometry" />
        </mxCell>
        <mxCell id="Qo9rTc8Vc66NQw80wVvB-24" value="" style="edgeStyle=entityRelationEdgeStyle;startArrow=none;endArrow=none;segment=10;curved=1;sourcePerimeterSpacing=0;targetPerimeterSpacing=0;rounded=0;exitX=0;exitY=0.75;exitDx=0;exitDy=0;opacity=60;strokeColor=#d79b00;align=center;verticalAlign=middle;fontFamily=Helvetica;fontSize=12;fontColor=default;fillColor=#ffe6cc;" parent="1" source="T1doIEQyFVwWhVVJHX3b-7" target="Qo9rTc8Vc66NQw80wVvB-23" edge="1">
          <mxGeometry relative="1" as="geometry">
            <mxPoint x="850" y="14" as="sourcePoint" />
            <Array as="points">
              <mxPoint x="810" y="30" />
              <mxPoint x="830" />
              <mxPoint x="820" y="10" />
              <mxPoint x="860" y="40" />
              <mxPoint x="820" y="30" />
              <mxPoint x="790" y="40" />
              <mxPoint x="810" y="10" />
              <mxPoint x="800" y="14" />
              <mxPoint x="860" y="50" />
              <mxPoint x="790" y="30" />
              <mxPoint x="760" y="70" />
              <mxPoint x="720" y="150" />
            </Array>
          </mxGeometry>
        </mxCell>
        <mxCell id="Qo9rTc8Vc66NQw80wVvB-25" value="学生：课后拓展" style="whiteSpace=wrap;html=1;rounded=1;arcSize=50;align=center;verticalAlign=middle;strokeWidth=1;autosize=1;spacing=4;treeFolding=1;treeMoving=1;newEdgeStyle={&quot;edgeStyle&quot;:&quot;entityRelationEdgeStyle&quot;,&quot;startArrow&quot;:&quot;none&quot;,&quot;endArrow&quot;:&quot;none&quot;,&quot;segment&quot;:10,&quot;curved&quot;:1,&quot;sourcePerimeterSpacing&quot;:0,&quot;targetPerimeterSpacing&quot;:0};opacity=20;strokeColor=#006EAF;fontFamily=Helvetica;fontSize=16;fontColor=light-dark(#000000, #121212);fillColor=#1ba1e2;gradientColor=none;" parent="1" vertex="1">
          <mxGeometry x="892" y="25" width="160" height="40" as="geometry" />
        </mxCell>
        <mxCell id="Qo9rTc8Vc66NQw80wVvB-26" value="" style="edgeStyle=entityRelationEdgeStyle;startArrow=none;endArrow=none;segment=10;curved=1;sourcePerimeterSpacing=0;targetPerimeterSpacing=0;rounded=0;exitX=0;exitY=0.5;exitDx=0;exitDy=0;" parent="1" source="T1doIEQyFVwWhVVJHX3b-4" target="Qo9rTc8Vc66NQw80wVvB-25" edge="1">
          <mxGeometry relative="1" as="geometry">
            <mxPoint x="833.867245751579" y="183.81399715172688" as="sourcePoint" />
            <Array as="points">
              <mxPoint x="840" y="200" />
            </Array>
          </mxGeometry>
        </mxCell>
        <mxCell id="Qo9rTc8Vc66NQw80wVvB-27" value="老师：教学反思" style="whiteSpace=wrap;html=1;rounded=1;arcSize=50;align=center;verticalAlign=middle;strokeWidth=1;autosize=1;spacing=4;treeFolding=1;treeMoving=1;newEdgeStyle={&quot;edgeStyle&quot;:&quot;entityRelationEdgeStyle&quot;,&quot;startArrow&quot;:&quot;none&quot;,&quot;endArrow&quot;:&quot;none&quot;,&quot;segment&quot;:10,&quot;curved&quot;:1,&quot;sourcePerimeterSpacing&quot;:0,&quot;targetPerimeterSpacing&quot;:0};opacity=20;strokeColor=#b85450;fontFamily=Helvetica;fontSize=16;fontColor=default;fillColor=#f8cecc;" parent="1" vertex="1">
          <mxGeometry x="960" y="80" width="160" height="40" as="geometry" />
        </mxCell>
        <mxCell id="Qo9rTc8Vc66NQw80wVvB-28" value="" style="edgeStyle=entityRelationEdgeStyle;startArrow=none;endArrow=none;segment=10;curved=1;sourcePerimeterSpacing=0;targetPerimeterSpacing=0;rounded=0;exitX=0;exitY=0.5;exitDx=0;exitDy=0;" parent="1" source="Qo9rTc8Vc66NQw80wVvB-6" target="Qo9rTc8Vc66NQw80wVvB-27" edge="1">
          <mxGeometry relative="1" as="geometry">
            <mxPoint x="940" y="133" as="sourcePoint" />
            <Array as="points">
              <mxPoint x="920" y="220" />
            </Array>
          </mxGeometry>
        </mxCell>
        <mxCell id="ZP9dMkIUFEcNXo-w45km-4" value="AI&lt;div&gt;大模型&lt;/div&gt;" style="ellipse;whiteSpace=wrap;html=1;aspect=fixed;fontSize=24;fillColor=#fad7ac;strokeColor=#b46504;opacity=20;" vertex="1" parent="1">
          <mxGeometry x="585" y="925" width="95" height="95" as="geometry" />
        </mxCell>
        <mxCell id="ZP9dMkIUFEcNXo-w45km-5" value="&lt;span style=&quot;font-family: 宋体; text-align: justify;&quot;&gt;ROS技术&lt;/span&gt;" style="rounded=0;whiteSpace=wrap;html=1;fontSize=24;strokeColor=none;rotation=-60;opacity=0;" vertex="1" parent="1">
          <mxGeometry x="632.5" y="865" width="91" height="20" as="geometry" />
        </mxCell>
        <mxCell id="ZP9dMkIUFEcNXo-w45km-6" value="&lt;span style=&quot;font-family: 宋体; text-align: justify;&quot;&gt;机器人&lt;/span&gt;&lt;div&gt;&lt;span style=&quot;font-family: 宋体; text-align: justify;&quot;&gt;数学基础&lt;/span&gt;&lt;/div&gt;" style="rounded=0;whiteSpace=wrap;html=1;fontSize=24;strokeColor=none;opacity=0;" vertex="1" parent="1">
          <mxGeometry x="693" y="915" width="108" height="40" as="geometry" />
        </mxCell>
        <mxCell id="ZP9dMkIUFEcNXo-w45km-7" value="&lt;span style=&quot;font-family: 宋体; text-align: justify;&quot;&gt;运动学&lt;/span&gt;&lt;div&gt;&lt;span style=&quot;font-family: 宋体; text-align: justify;&quot;&gt;动力学&lt;/span&gt;&lt;/div&gt;" style="rounded=0;whiteSpace=wrap;html=1;fontSize=24;strokeColor=none;opacity=0;" vertex="1" parent="1">
          <mxGeometry x="705" y="990" width="90" height="40" as="geometry" />
        </mxCell>
        <mxCell id="ZP9dMkIUFEcNXo-w45km-8" value="&lt;span style=&quot;font-family: 宋体; text-align: justify;&quot;&gt;传感器技术&lt;/span&gt;" style="rounded=0;whiteSpace=wrap;html=1;fontSize=24;strokeColor=none;rotation=60;opacity=0;" vertex="1" parent="1">
          <mxGeometry x="627.0600000000001" y="1067.84" width="121.88" height="19.31" as="geometry" />
        </mxCell>
        <mxCell id="ZP9dMkIUFEcNXo-w45km-9" value="&lt;span style=&quot;font-family: 宋体; text-align: justify;&quot;&gt;图像处理&lt;/span&gt;" style="rounded=0;whiteSpace=wrap;html=1;fontSize=24;strokeColor=none;rotation=-60;opacity=0;" vertex="1" parent="1">
          <mxGeometry x="533.5" y="1060" width="100" height="35" as="geometry" />
        </mxCell>
        <mxCell id="ZP9dMkIUFEcNXo-w45km-10" value="&lt;span style=&quot;font-family: 宋体; text-align: justify;&quot;&gt;路径规划&lt;/span&gt;" style="rounded=0;whiteSpace=wrap;html=1;fontSize=24;strokeColor=none;opacity=0;" vertex="1" parent="1">
          <mxGeometry x="472" y="930" width="101" height="25" as="geometry" />
        </mxCell>
        <mxCell id="ZP9dMkIUFEcNXo-w45km-11" value="&lt;span style=&quot;font-family: 宋体; text-align: justify;&quot;&gt;控制理论&lt;/span&gt;" style="rounded=0;whiteSpace=wrap;html=1;fontSize=24;strokeColor=none;rotation=60;opacity=0;" vertex="1" parent="1">
          <mxGeometry x="533.5" y="840" width="99" height="35" as="geometry" />
        </mxCell>
        <mxCell id="ZP9dMkIUFEcNXo-w45km-12" value="&lt;span style=&quot;font-family: 宋体; text-align: justify;&quot;&gt;SLAM&lt;/span&gt;" style="rounded=0;whiteSpace=wrap;html=1;fontSize=24;strokeColor=none;opacity=0;" vertex="1" parent="1">
          <mxGeometry x="480" y="990" width="85" height="20" as="geometry" />
        </mxCell>
        <mxCell id="ZP9dMkIUFEcNXo-w45km-26" value="" style="ellipse;whiteSpace=wrap;html=1;aspect=fixed;fillColor=#1ba1e2;fontColor=#ffffff;strokeColor=#006EAF;opacity=20;" vertex="1" parent="1">
          <mxGeometry x="1237.5" y="238.5" width="735" height="735" as="geometry" />
        </mxCell>
        <mxCell id="ZP9dMkIUFEcNXo-w45km-27" value="" style="ellipse;whiteSpace=wrap;html=1;aspect=fixed;fillColor=#ffe6cc;strokeColor=#d79b00;opacity=60;" vertex="1" parent="1">
          <mxGeometry x="1300" y="301" width="610" height="610" as="geometry" />
        </mxCell>
        <mxCell id="ZP9dMkIUFEcNXo-w45km-28" value="" style="ellipse;whiteSpace=wrap;html=1;rounded=0;shadow=0;comic=0;strokeWidth=1;fontFamily=Verdana;fontSize=14;strokeColor=none;fillColor=#0069D1;opacity=50;" vertex="1" parent="1">
          <mxGeometry x="1388" y="395.5" width="434" height="434" as="geometry" />
        </mxCell>
        <mxCell id="ZP9dMkIUFEcNXo-w45km-29" value="" style="endArrow=none;html=1;rounded=0;entryX=0.5;entryY=0;entryDx=0;entryDy=0;opacity=50;fillColor=#e51400;strokeColor=#B20000;exitX=0.5;exitY=1;exitDx=0;exitDy=0;" edge="1" parent="1" source="ZP9dMkIUFEcNXo-w45km-26">
          <mxGeometry width="50" height="50" relative="1" as="geometry">
            <mxPoint x="1605" y="911" as="sourcePoint" />
            <mxPoint x="1605" y="551" as="targetPoint" />
          </mxGeometry>
        </mxCell>
        <mxCell id="ZP9dMkIUFEcNXo-w45km-31" value="" style="endArrow=none;html=1;rounded=0;entryX=1;entryY=0;entryDx=0;entryDy=0;opacity=20;fillColor=#e51400;strokeColor=#B20000;exitX=0;exitY=1;exitDx=0;exitDy=0;" edge="1" parent="1" source="ZP9dMkIUFEcNXo-w45km-26" target="ZP9dMkIUFEcNXo-w45km-26">
          <mxGeometry width="50" height="50" relative="1" as="geometry">
            <mxPoint x="1605" y="606" as="sourcePoint" />
            <mxPoint x="1650" y="556" as="targetPoint" />
          </mxGeometry>
        </mxCell>
        <mxCell id="ZP9dMkIUFEcNXo-w45km-32" value="" style="endArrow=none;html=1;rounded=0;entryX=0.5;entryY=0;entryDx=0;entryDy=0;opacity=20;fillColor=#e51400;strokeColor=#B20000;exitX=0.5;exitY=1;exitDx=0;exitDy=0;" edge="1" parent="1" target="ZP9dMkIUFEcNXo-w45km-26">
          <mxGeometry width="50" height="50" relative="1" as="geometry">
            <mxPoint x="1605" y="661" as="sourcePoint" />
            <mxPoint x="1869" y="450" as="targetPoint" />
          </mxGeometry>
        </mxCell>
        <mxCell id="ZP9dMkIUFEcNXo-w45km-33" value="" style="endArrow=none;html=1;rounded=0;entryX=0;entryY=0;entryDx=0;entryDy=0;opacity=20;fillColor=#e51400;strokeColor=#B20000;exitX=1;exitY=1;exitDx=0;exitDy=0;" edge="1" parent="1" source="ZP9dMkIUFEcNXo-w45km-26" target="ZP9dMkIUFEcNXo-w45km-26">
          <mxGeometry width="50" height="50" relative="1" as="geometry">
            <mxPoint x="1600" y="606" as="sourcePoint" />
            <mxPoint x="1879" y="460" as="targetPoint" />
          </mxGeometry>
        </mxCell>
        <mxCell id="ZP9dMkIUFEcNXo-w45km-34" value="" style="endArrow=none;html=1;rounded=0;entryX=1;entryY=0.5;entryDx=0;entryDy=0;opacity=20;fillColor=#e51400;strokeColor=#B20000;exitX=0;exitY=0.5;exitDx=0;exitDy=0;" edge="1" parent="1" source="ZP9dMkIUFEcNXo-w45km-26" target="ZP9dMkIUFEcNXo-w45km-26">
          <mxGeometry width="50" height="50" relative="1" as="geometry">
            <mxPoint x="1605" y="606" as="sourcePoint" />
            <mxPoint x="1819" y="400" as="targetPoint" />
          </mxGeometry>
        </mxCell>
        <mxCell id="ZP9dMkIUFEcNXo-w45km-44" value="课前预习" style="text;html=1;align=center;verticalAlign=middle;whiteSpace=wrap;rounded=0;fontSize=24;rotation=30;" vertex="1" parent="1">
          <mxGeometry x="1610" y="443.5" width="105" height="40" as="geometry" />
        </mxCell>
        <mxCell id="ZP9dMkIUFEcNXo-w45km-45" value="ChatGPT、DeepSeek" style="text;html=1;align=center;verticalAlign=middle;whiteSpace=wrap;rounded=0;rotation=60;fontSize=24;" vertex="1" parent="1">
          <mxGeometry x="1690" y="507.5" width="140" height="75" as="geometry" />
        </mxCell>
        <mxCell id="ZP9dMkIUFEcNXo-w45km-46" value="根据“3W”法" style="text;html=1;align=center;verticalAlign=middle;whiteSpace=wrap;rounded=0;rotation=-60;fontSize=24;" vertex="1" parent="1">
          <mxGeometry x="1715" y="663" width="90" height="22" as="geometry" />
        </mxCell>
        <mxCell id="ZP9dMkIUFEcNXo-w45km-47" value="翻转课堂答辩" style="text;html=1;align=center;verticalAlign=middle;whiteSpace=wrap;rounded=0;fontSize=24;rotation=326;" vertex="1" parent="1">
          <mxGeometry x="1492.28" y="439" width="99" height="42" as="geometry" />
        </mxCell>
        <mxCell id="ZP9dMkIUFEcNXo-w45km-49" value="了解原理" style="text;html=1;align=center;verticalAlign=middle;whiteSpace=wrap;rounded=0;fontSize=24;rotation=30;" vertex="1" parent="1">
          <mxGeometry x="1489.28" y="732" width="105" height="34" as="geometry" />
        </mxCell>
        <mxCell id="ZP9dMkIUFEcNXo-w45km-50" value="理论验证" style="text;html=1;align=center;verticalAlign=middle;whiteSpace=wrap;rounded=0;fontSize=24;rotation=60;" vertex="1" parent="1">
          <mxGeometry x="1412.5" y="634.5" width="100" height="56" as="geometry" />
        </mxCell>
        <mxCell id="ZP9dMkIUFEcNXo-w45km-52" value="在Ubuntu系统下&lt;div&gt;完成ROS的安装&lt;/div&gt;" style="text;html=1;align=center;verticalAlign=middle;whiteSpace=wrap;rounded=0;fontSize=16;rotation=27;" vertex="1" parent="1">
          <mxGeometry x="1662" y="286" width="185" height="45" as="geometry" />
        </mxCell>
        <mxCell id="ZP9dMkIUFEcNXo-w45km-53" value="复习高数、线代、&lt;div&gt;概率等基础数学知识。&lt;/div&gt;" style="text;html=1;align=center;verticalAlign=middle;whiteSpace=wrap;rounded=0;fontSize=16;rotation=60;" vertex="1" parent="1">
          <mxGeometry x="1823" y="456" width="170" height="30" as="geometry" />
        </mxCell>
        <mxCell id="ZP9dMkIUFEcNXo-w45km-54" value="安装MoveIt，&lt;div&gt;验证运动学和动力学模型&lt;/div&gt;" style="text;html=1;align=center;verticalAlign=middle;whiteSpace=wrap;rounded=0;fontSize=16;rotation=-65;" vertex="1" parent="1">
          <mxGeometry x="1818" y="709" width="180" height="45" as="geometry" />
        </mxCell>
        <mxCell id="ZP9dMkIUFEcNXo-w45km-55" value="绪论、机器人应用" style="text;html=1;align=center;verticalAlign=middle;whiteSpace=wrap;rounded=0;fontSize=16;rotation=25;" vertex="1" parent="1">
          <mxGeometry x="1640" y="389" width="130" height="30" as="geometry" />
        </mxCell>
        <mxCell id="ZP9dMkIUFEcNXo-w45km-56" value="齐次坐标、矩阵理论" style="text;html=1;align=center;verticalAlign=middle;whiteSpace=wrap;rounded=0;fontSize=16;rotation=60;" vertex="1" parent="1">
          <mxGeometry x="1780" y="483.5" width="150" height="30" as="geometry" />
        </mxCell>
        <mxCell id="ZP9dMkIUFEcNXo-w45km-57" value="DH-Model、动力学介绍" style="text;html=1;align=center;verticalAlign=middle;whiteSpace=wrap;rounded=0;fontSize=16;rotation=-60;" vertex="1" parent="1">
          <mxGeometry x="1752" y="702" width="200" height="30" as="geometry" />
        </mxCell>
        <mxCell id="ZP9dMkIUFEcNXo-w45km-58" value="内外部传感器" style="text;html=1;align=center;verticalAlign=middle;whiteSpace=wrap;rounded=0;fontSize=16;rotation=-25;" vertex="1" parent="1">
          <mxGeometry x="1670" y="836" width="110" height="45" as="geometry" />
        </mxCell>
        <mxCell id="ZP9dMkIUFEcNXo-w45km-59" value="选用任意一款单片机&lt;div&gt;采集数据&lt;/div&gt;" style="text;html=1;align=center;verticalAlign=middle;whiteSpace=wrap;rounded=0;fontSize=16;rotation=-25;" vertex="1" parent="1">
          <mxGeometry x="1663" y="886" width="170" height="45" as="geometry" />
        </mxCell>
        <mxCell id="ZP9dMkIUFEcNXo-w45km-60" value="基本预处理算法" style="text;html=1;align=center;verticalAlign=middle;whiteSpace=wrap;rounded=0;fontSize=16;rotation=25;" vertex="1" parent="1">
          <mxGeometry x="1440" y="836" width="120" height="45" as="geometry" />
        </mxCell>
        <mxCell id="ZP9dMkIUFEcNXo-w45km-61" value="能够配置&lt;div&gt;Opencv环境&lt;/div&gt;" style="text;html=1;align=center;verticalAlign=middle;whiteSpace=wrap;rounded=0;fontSize=16;rotation=30;" vertex="1" parent="1">
          <mxGeometry x="1360" y="886" width="205" height="45" as="geometry" />
        </mxCell>
        <mxCell id="ZP9dMkIUFEcNXo-w45km-62" value="激光和视觉SLAM" style="text;html=1;align=center;verticalAlign=middle;whiteSpace=wrap;rounded=0;fontSize=16;rotation=70;" vertex="1" parent="1">
          <mxGeometry x="1278" y="696" width="155" height="32" as="geometry" />
        </mxCell>
        <mxCell id="ZP9dMkIUFEcNXo-w45km-63" value="了解SLAM前沿技术，选择任意一个小点研究" style="text;html=1;align=center;verticalAlign=middle;whiteSpace=wrap;rounded=0;fontSize=16;rotation=62;" vertex="1" parent="1">
          <mxGeometry x="1220" y="716" width="170" height="45" as="geometry" />
        </mxCell>
        <mxCell id="ZP9dMkIUFEcNXo-w45km-64" value="Dijstra、人工势场" style="text;html=1;align=center;verticalAlign=middle;whiteSpace=wrap;rounded=0;fontSize=16;rotation=-70;" vertex="1" parent="1">
          <mxGeometry x="1279" y="491.5" width="160" height="16" as="geometry" />
        </mxCell>
        <mxCell id="ZP9dMkIUFEcNXo-w45km-65" value="能够跑通ROS&lt;div&gt;中路径仿真&lt;/div&gt;" style="text;html=1;align=center;verticalAlign=middle;whiteSpace=wrap;rounded=0;fontSize=16;rotation=-67;" vertex="1" parent="1">
          <mxGeometry x="1245" y="452" width="110" height="45" as="geometry" />
        </mxCell>
        <mxCell id="ZP9dMkIUFEcNXo-w45km-80" value="" style="group" vertex="1" connectable="0" parent="1">
          <mxGeometry x="1459" y="474.19392033916137" width="294" height="292.30607966083863" as="geometry" />
        </mxCell>
        <mxCell id="ZP9dMkIUFEcNXo-w45km-30" value="" style="ellipse;whiteSpace=wrap;html=1;aspect=fixed;fillColor=#fff2cc;gradientColor=#ffd966;strokeColor=#d6b656;opacity=60;" vertex="1" parent="ZP9dMkIUFEcNXo-w45km-80">
          <mxGeometry x="15.5" y="1.306079660838634" width="261" height="261" as="geometry" />
        </mxCell>
        <mxCell id="ZP9dMkIUFEcNXo-w45km-35" value="AI&lt;div&gt;大模型&lt;/div&gt;" style="ellipse;whiteSpace=wrap;html=1;aspect=fixed;fontSize=20;fillColor=#fad7ac;strokeColor=#b46504;opacity=20;" vertex="1" parent="ZP9dMkIUFEcNXo-w45km-80">
          <mxGeometry x="106" y="91.80607966083863" width="80" height="80" as="geometry" />
        </mxCell>
        <mxCell id="ZP9dMkIUFEcNXo-w45km-36" value="&lt;span style=&quot;font-family: 宋体; text-align: justify;&quot;&gt;ROS技术&lt;/span&gt;" style="rounded=0;whiteSpace=wrap;html=1;fontSize=20;strokeColor=none;rotation=-60;opacity=0;" vertex="1" parent="ZP9dMkIUFEcNXo-w45km-80">
          <mxGeometry x="141" y="45.806079660838634" width="80" height="20" as="geometry" />
        </mxCell>
        <mxCell id="ZP9dMkIUFEcNXo-w45km-37" value="&lt;span style=&quot;font-family: 宋体; text-align: justify;&quot;&gt;机器人&lt;/span&gt;&lt;div&gt;&lt;span style=&quot;font-family: 宋体; text-align: justify;&quot;&gt;数学基础&lt;/span&gt;&lt;/div&gt;" style="rounded=0;whiteSpace=wrap;html=1;fontSize=20;strokeColor=none;opacity=0;" vertex="1" parent="ZP9dMkIUFEcNXo-w45km-80">
          <mxGeometry x="186" y="91.80607966083863" width="90" height="40" as="geometry" />
        </mxCell>
        <mxCell id="ZP9dMkIUFEcNXo-w45km-38" value="&lt;span style=&quot;font-family: 宋体; text-align: justify;&quot;&gt;运动学&lt;/span&gt;&lt;div&gt;&lt;span style=&quot;font-family: 宋体; text-align: justify;&quot;&gt;动力学&lt;/span&gt;&lt;/div&gt;" style="rounded=0;whiteSpace=wrap;html=1;fontSize=20;strokeColor=none;opacity=0;" vertex="1" parent="ZP9dMkIUFEcNXo-w45km-80">
          <mxGeometry x="181" y="134.80607966083863" width="90" height="40" as="geometry" />
        </mxCell>
        <mxCell id="ZP9dMkIUFEcNXo-w45km-39" value="&lt;span style=&quot;font-family: 宋体; text-align: justify;&quot;&gt;传感器&lt;/span&gt;" style="rounded=0;whiteSpace=wrap;html=1;fontSize=20;strokeColor=none;rotation=60;opacity=0;" vertex="1" parent="ZP9dMkIUFEcNXo-w45km-80">
          <mxGeometry x="136" y="185.80607966083863" width="85" height="20" as="geometry" />
        </mxCell>
        <mxCell id="ZP9dMkIUFEcNXo-w45km-40" value="&lt;span style=&quot;font-family: 宋体; text-align: justify;&quot;&gt;图像处理&lt;/span&gt;" style="rounded=0;whiteSpace=wrap;html=1;fontSize=20;strokeColor=none;rotation=-60;opacity=0;" vertex="1" parent="ZP9dMkIUFEcNXo-w45km-80">
          <mxGeometry x="71" y="195.80607966083863" width="85" height="20" as="geometry" />
        </mxCell>
        <mxCell id="ZP9dMkIUFEcNXo-w45km-41" value="&lt;span style=&quot;font-family: 宋体; text-align: justify;&quot;&gt;路径规划&lt;/span&gt;" style="rounded=0;whiteSpace=wrap;html=1;fontSize=20;strokeColor=none;opacity=0;" vertex="1" parent="ZP9dMkIUFEcNXo-w45km-80">
          <mxGeometry x="21" y="111.80607966083863" width="90" height="20" as="geometry" />
        </mxCell>
        <mxCell id="ZP9dMkIUFEcNXo-w45km-42" value="&lt;span style=&quot;font-family: 宋体; text-align: justify;&quot;&gt;控制理论&lt;/span&gt;" style="rounded=0;whiteSpace=wrap;html=1;fontSize=20;strokeColor=none;rotation=60;opacity=0;" vertex="1" parent="ZP9dMkIUFEcNXo-w45km-80">
          <mxGeometry x="71" y="45.806079660838634" width="85" height="20" as="geometry" />
        </mxCell>
        <mxCell id="ZP9dMkIUFEcNXo-w45km-43" value="&lt;span style=&quot;font-family: 宋体; text-align: justify;&quot;&gt;SLAM&lt;/span&gt;" style="rounded=0;whiteSpace=wrap;html=1;fontSize=20;strokeColor=none;opacity=0;" vertex="1" parent="ZP9dMkIUFEcNXo-w45km-80">
          <mxGeometry x="41" y="134.80607966083863" width="85" height="20" as="geometry" />
        </mxCell>
        <mxCell id="ZP9dMkIUFEcNXo-w45km-48" value="查找资料" style="text;html=1;align=center;verticalAlign=middle;whiteSpace=wrap;rounded=0;fontSize=24;rotation=336;" vertex="1" parent="ZP9dMkIUFEcNXo-w45km-80">
          <mxGeometry x="161" y="255.80607966083863" width="100" height="30" as="geometry" />
        </mxCell>
        <mxCell id="ZP9dMkIUFEcNXo-w45km-51" value="制作PPT" style="text;html=1;align=center;verticalAlign=middle;whiteSpace=wrap;rounded=0;fontSize=24;rotation=300;" vertex="1" parent="ZP9dMkIUFEcNXo-w45km-80">
          <mxGeometry x="-39" y="45.806079660838634" width="80" height="30" as="geometry" />
        </mxCell>
        <mxCell id="ZP9dMkIUFEcNXo-w45km-66" value="基本控制理论、&lt;div&gt;PID控制基础&lt;/div&gt;" style="text;html=1;align=center;verticalAlign=middle;whiteSpace=wrap;rounded=0;fontSize=16;rotation=333;" vertex="1" parent="1">
          <mxGeometry x="1421" y="329" width="150" height="45" as="geometry" />
        </mxCell>
        <mxCell id="ZP9dMkIUFEcNXo-w45km-67" value="能够配置PID参数" style="text;html=1;align=center;verticalAlign=middle;whiteSpace=wrap;rounded=0;fontSize=16;rotation=-25;" vertex="1" parent="1">
          <mxGeometry x="1406" y="276" width="125" height="45" as="geometry" />
        </mxCell>
      </root>
    </mxGraphModel>
  </diagram>
</mxfile>
